<svg width="188" height="175" viewBox="0 0 188 175" fill="none" xmlns="http://www.w3.org/2000/svg">
<g clip-path="url(#clip0_1_981)" filter="url(#filter0_d_1_981)">
<path d="M30.833 153.729C65.721 170.384 122.283 170.389 157.171 153.729C192.059 137.068 192.054 110.067 157.171 93.4114C122.288 76.7561 65.721 76.7561 30.833 93.4114C-4.05487 110.067 -4.04981 137.073 30.833 153.729Z" fill="#1F67FF"/>
<path d="M157.05 141.421C163.475 141.421 168.684 138.935 168.684 135.868C168.684 132.801 163.475 130.314 157.05 130.314C150.624 130.314 145.415 132.801 145.415 135.868C145.415 138.935 150.624 141.421 157.05 141.421Z" fill="#0052FE"/>
<path d="M28.1846 136.662L32.3007 134.284C34.5988 132.405 36.348 129.94 37.3635 127.148C38.6343 123.638 38.4571 120.971 37.5458 119.632C36.4269 117.983 33.5259 118.273 33.4095 121.742C33.1665 128.578 31.1768 133.32 28.1846 136.662Z" fill="#27DEBF"/>
<path d="M28.1846 136.662L32.3007 134.284C34.5988 132.405 36.348 129.94 37.3635 127.148C38.6343 123.638 38.4571 120.971 37.5458 119.632C36.4269 117.983 33.5259 118.273 33.4095 121.742C33.1665 128.578 31.1768 133.32 28.1846 136.662Z" fill="url(#paint0_linear_1_981)"/>
<path d="M28.1866 136.915C28.133 136.914 28.081 136.897 28.0381 136.864C27.9952 136.832 27.9635 136.787 27.9478 136.736C27.932 136.685 27.9329 136.63 27.9504 136.579C27.9678 136.528 28.0009 136.484 28.0449 136.453C37.563 129.86 35.7201 120.665 35.6999 120.574C35.6929 120.541 35.6925 120.506 35.6988 120.473C35.705 120.44 35.7178 120.408 35.7364 120.379C35.755 120.351 35.779 120.326 35.807 120.307C35.835 120.288 35.8666 120.274 35.8998 120.267C35.9331 120.26 35.9674 120.26 36.0008 120.266C36.0341 120.272 36.066 120.285 36.0944 120.304C36.1228 120.322 36.1474 120.347 36.1665 120.375C36.1857 120.403 36.1992 120.434 36.2061 120.468C36.2061 120.564 38.1503 130.073 28.3486 136.869C28.3011 136.902 28.2442 136.918 28.1866 136.915Z" fill="white"/>
<path d="M19.9366 141.434C19.9366 141.434 18.5038 140.267 18.8481 138.685C19.1924 137.102 20.1189 135.966 18.5342 133.928C16.9495 131.889 16.5091 129.17 18.4026 127.7C19.8455 126.558 22.0984 128.171 22.9085 125.164C23.5059 122.963 23.3034 118.089 26.1031 116.466C28.9029 114.843 30.6597 117.287 30.2192 120.594C29.8344 123.551 29.2876 126.396 29.7129 127.187C30.5331 128.709 31.9355 128.501 31.8697 131.28C31.814 133.867 29.3686 136.007 29.3686 136.007L19.9366 141.434Z" fill="url(#paint1_linear_1_981)"/>
<path d="M24.6429 138.951C24.581 138.951 24.5214 138.928 24.4749 138.887C24.4285 138.846 24.3982 138.79 24.3897 138.728C23.6658 132.718 25.4023 122.342 26.8199 119.258C26.8318 119.224 26.8509 119.193 26.8759 119.166C26.9009 119.14 26.9313 119.12 26.9648 119.106C26.9984 119.093 27.0345 119.087 27.0706 119.088C27.1068 119.09 27.1421 119.1 27.1743 119.116C27.2045 119.13 27.2317 119.149 27.2542 119.174C27.2768 119.198 27.2943 119.226 27.3056 119.258C27.3169 119.289 27.3219 119.322 27.3202 119.355C27.3185 119.388 27.3102 119.421 27.2958 119.451C25.8934 122.494 24.2176 132.901 24.9112 138.647C24.9183 138.714 24.8989 138.78 24.8572 138.832C24.8155 138.885 24.7548 138.918 24.6884 138.926L24.6429 138.951Z" fill="white"/>
<path d="M24.5033 134.273C24.4645 134.275 24.426 134.266 24.3919 134.248C22.6351 133.391 21.5213 130.332 21.4757 130.19C21.4633 130.159 21.4573 130.125 21.4581 130.091C21.459 130.057 21.4666 130.024 21.4805 129.993C21.4944 129.962 21.5144 129.934 21.5392 129.911C21.5641 129.888 21.5933 129.87 21.6251 129.859C21.6569 129.847 21.6907 129.842 21.7245 129.844C21.7583 129.846 21.7914 129.854 21.8219 129.869C21.8523 129.884 21.8795 129.905 21.9018 129.93C21.924 129.956 21.941 129.986 21.9516 130.018C21.9516 130.048 23.0401 133.01 24.6146 133.776C24.6663 133.801 24.7079 133.843 24.7327 133.895C24.7574 133.947 24.7639 134.005 24.7509 134.061C24.738 134.117 24.7064 134.167 24.6614 134.203C24.6164 134.239 24.5607 134.258 24.5033 134.258V134.273Z" fill="white"/>
<path d="M24.4753 136.301C24.4246 136.301 24.3751 136.286 24.3334 136.257C24.2918 136.228 24.26 136.187 24.2424 136.139C24.2172 136.077 24.2175 136.008 24.2431 135.946C24.2687 135.884 24.3176 135.835 24.3791 135.809C27.3358 134.623 29.1787 131.098 29.1989 131.057C29.2298 130.997 29.2832 130.952 29.3473 130.932C29.4113 130.911 29.4809 130.917 29.5407 130.948C29.6004 130.979 29.6455 131.033 29.6659 131.097C29.6863 131.161 29.6804 131.231 29.6495 131.291C29.5685 131.443 27.7003 135.023 24.5867 136.281C24.552 136.298 24.5136 136.305 24.4753 136.301Z" fill="white"/>
<path d="M127.821 109.018C127.821 109.018 125.608 105.427 125.39 101.527C125.173 97.6266 126.028 96.0037 127.203 95.5371C128.378 95.0705 128.469 96.5057 129.071 97.3527C129.674 98.1997 130.904 97.7179 131.36 95.0755C131.815 92.4332 133.476 87.9752 136.929 87.108C140.726 86.1646 138.69 90.6277 137.734 92.3673C136.777 94.1069 136.038 96.4804 136.665 97.1245C137.293 97.7686 138.27 96.5768 139.197 97.6824C140.326 99.0162 136.817 103.819 134.802 104.98L127.821 109.018Z" fill="url(#paint2_linear_1_981)"/>
<path d="M130.856 107.51C130.822 107.509 130.79 107.501 130.759 107.487C130.729 107.473 130.702 107.453 130.679 107.429C130.657 107.404 130.639 107.376 130.628 107.344C130.616 107.313 130.611 107.28 130.613 107.246C130.955 100.973 132.908 94.8935 136.283 89.5971C136.302 89.5695 136.327 89.546 136.355 89.5282C136.383 89.5104 136.415 89.4985 136.448 89.4932C136.481 89.488 136.515 89.4896 136.548 89.4978C136.58 89.5061 136.611 89.5209 136.637 89.5413C136.69 89.5808 136.726 89.6395 136.736 89.7049C136.747 89.7703 136.731 89.8371 136.693 89.8912C133.379 95.1102 131.461 101.096 131.124 107.272C131.122 107.305 131.114 107.338 131.099 107.368C131.084 107.398 131.064 107.425 131.039 107.447C131.014 107.469 130.985 107.486 130.954 107.497C130.922 107.508 130.889 107.512 130.856 107.51Z" fill="white"/>
<path d="M131.143 104.513C131.101 104.512 131.059 104.502 131.022 104.482C129.604 103.696 128.819 101.363 128.789 101.267C128.778 101.235 128.773 101.202 128.775 101.168C128.777 101.135 128.785 101.102 128.8 101.072C128.814 101.041 128.835 101.014 128.86 100.992C128.885 100.97 128.914 100.953 128.946 100.942C129.01 100.921 129.079 100.927 129.139 100.957C129.199 100.988 129.244 101.041 129.265 101.104C129.265 101.104 130.024 103.351 131.29 104.036C131.347 104.07 131.389 104.125 131.407 104.189C131.425 104.253 131.418 104.322 131.386 104.381C131.363 104.424 131.328 104.46 131.285 104.484C131.241 104.507 131.192 104.517 131.143 104.513Z" fill="white"/>
<path d="M131.393 102.975C131.337 102.974 131.282 102.955 131.238 102.92C131.194 102.885 131.163 102.837 131.15 102.782C131.141 102.75 131.139 102.717 131.144 102.684C131.149 102.652 131.16 102.62 131.177 102.592C131.194 102.564 131.216 102.539 131.243 102.519C131.27 102.5 131.3 102.486 131.332 102.478C134.987 101.55 136.253 99.6329 136.263 99.6126C136.281 99.5843 136.304 99.5598 136.332 99.5405C136.359 99.5212 136.39 99.5076 136.423 99.5003C136.455 99.493 136.489 99.4922 136.522 99.498C136.555 99.5037 136.587 99.516 136.615 99.534C136.643 99.5519 136.668 99.5753 136.687 99.6028C136.706 99.6302 136.72 99.6612 136.727 99.6939C136.734 99.7267 136.735 99.7605 136.729 99.7935C136.724 99.8266 136.711 99.8581 136.693 99.8864C136.638 99.9726 135.321 101.986 131.459 102.97L131.393 102.975Z" fill="white"/>
<path d="M72.7372 101.135C72.7372 101.135 67.882 99.9478 67.6288 90.8391C67.3605 81.0103 68.8186 69.5382 63.0723 68.6101C57.326 67.682 54.1364 74.6961 54.2073 82.8868C54.2731 90.0581 57.1589 105.628 72.717 108.681L72.7372 101.135Z" fill="#27DEBF"/>
<path d="M72.7372 101.135C72.7372 101.135 67.882 99.9478 67.6288 90.8391C67.3605 81.0103 68.8186 69.5382 63.0723 68.6101C57.326 67.682 54.1364 74.6961 54.2073 82.8868C54.2731 90.0581 57.1589 105.628 72.717 108.681L72.7372 101.135Z" fill="url(#paint3_linear_1_981)"/>
<path d="M72.7396 107.748H72.6941C69.1956 107.109 66.3453 105.177 64.2239 102.012C57.9359 92.614 59.9155 75.0661 60.5686 72.0029C60.5832 71.9376 60.6225 71.8805 60.6782 71.8437C60.7339 71.8068 60.8016 71.7929 60.8673 71.8051C60.9328 71.8208 60.9899 71.8612 61.0266 71.9178C61.0633 71.9744 61.077 72.043 61.0648 72.1094C60.4218 75.1523 58.4523 92.4771 64.6442 101.728C65.5455 103.162 66.7345 104.394 68.136 105.344C69.5374 106.293 71.1206 106.941 72.7852 107.246C72.8182 107.252 72.8497 107.264 72.8779 107.283C72.906 107.301 72.9302 107.325 72.949 107.353C72.9679 107.381 72.981 107.412 72.9876 107.445C72.9943 107.478 72.9943 107.512 72.9877 107.545C72.9769 107.603 72.9461 107.655 72.9007 107.692C72.8553 107.729 72.7982 107.749 72.7396 107.748Z" fill="white"/>
<path d="M72.7382 131.124C67.7209 131.804 59.5749 131.794 54.8715 128.081C50.1681 124.369 51.1503 121.174 52.9577 119.84C54.7652 118.506 56.3347 116.985 53.2261 114.023C50.1175 111.061 45.1256 106.304 43.5055 99.1678C41.8854 92.032 42.6853 87.5689 45.8647 86.0829C48.948 84.6426 49.7631 86.9349 51.6515 91.6617C53.54 96.3885 57.7877 92.3363 61.4228 93.8121C65.0579 95.288 64.9111 98.2092 65.1389 100.72C65.3667 103.23 66.5666 103.925 68.6272 103.925C70.6878 103.925 72.7382 105.112 72.7382 107.475V131.124Z" fill="url(#paint4_linear_1_981)"/>
<path d="M72.74 122.833C72.7184 122.837 72.6959 122.837 72.6742 122.833C72.4565 122.772 67.2671 121.26 59.7083 114.307C51.6584 106.903 47.8613 95.7956 47.8208 95.684C47.8014 95.6201 47.8074 95.5512 47.8376 95.4916C47.8678 95.4321 47.9199 95.3865 47.9828 95.3645C48.0459 95.3435 48.1148 95.3482 48.1745 95.3776C48.2342 95.407 48.2799 95.4588 48.3018 95.5217C48.3372 95.6333 52.0989 106.619 60.0526 113.932C67.5051 120.794 72.7552 122.331 72.8109 122.346C72.8428 122.355 72.8726 122.371 72.8985 122.391C72.9244 122.412 72.946 122.438 72.962 122.467C72.978 122.496 72.9881 122.529 72.9917 122.562C72.9953 122.595 72.9923 122.628 72.983 122.66C72.9666 122.711 72.9341 122.756 72.8902 122.787C72.8464 122.818 72.7937 122.834 72.74 122.833Z" fill="white"/>
<path d="M61.8177 116.075C61.7668 116.076 61.717 116.061 61.6752 116.032C61.6334 116.003 61.6018 115.961 61.5848 115.913C59.9597 111.734 59.5901 102.793 59.5597 102.412C59.5583 102.345 59.5828 102.28 59.6281 102.231C59.6734 102.182 59.736 102.152 59.8027 102.148C59.8688 102.149 59.9323 102.175 59.9808 102.22C60.0294 102.265 60.0597 102.326 60.066 102.392C60.066 102.483 60.4457 111.627 62.0405 115.73C62.0527 115.762 62.0585 115.795 62.0578 115.829C62.057 115.862 62.0495 115.895 62.0359 115.926C62.0222 115.957 62.0026 115.984 61.9782 116.007C61.9538 116.03 61.925 116.048 61.8937 116.06C61.8692 116.069 61.8436 116.074 61.8177 116.075Z" fill="white"/>
<path d="M61.7773 122.083C61.3105 122.087 60.8439 122.063 60.3799 122.012C60.3467 122.008 60.3145 121.998 60.2854 121.982C60.2562 121.965 60.2305 121.943 60.2098 121.917C60.1891 121.89 60.1738 121.86 60.1648 121.828C60.1558 121.796 60.1532 121.762 60.1571 121.728C60.1611 121.695 60.1716 121.663 60.188 121.634C60.2045 121.604 60.2264 121.579 60.2528 121.558C60.2791 121.537 60.3092 121.522 60.3415 121.513C60.3737 121.504 60.4074 121.501 60.4407 121.505C60.4862 121.505 65.1997 122.043 67.3616 119.837C67.3851 119.813 67.4131 119.794 67.4439 119.781C67.4748 119.768 67.5079 119.762 67.5413 119.762C67.5747 119.762 67.6078 119.768 67.6386 119.781C67.6695 119.794 67.6975 119.813 67.721 119.837C67.7446 119.86 67.7633 119.887 67.7761 119.918C67.7889 119.948 67.7955 119.981 67.7955 120.014C67.7955 120.047 67.7889 120.08 67.7761 120.111C67.7633 120.141 67.7446 120.169 67.721 120.192C66.1566 121.81 63.4277 122.083 61.7773 122.083Z" fill="white"/>
<path d="M58.1331 26.046L57.5863 22.8863L54.7714 24.7426C54.5142 24.2354 54.1496 23.7906 53.7031 23.4392L55.0498 19.7876L52.5184 19.2246L50.6654 22.7748C49.9936 22.8888 49.342 23.1007 48.7314 23.4037L47.9315 20.7258L44.9242 23.0943L45.1216 26.2387C44.5092 26.9259 43.9539 27.6621 43.461 28.4398L40.9803 28.313L39.2386 32.2233L41.3701 33.1362C41.1476 33.945 41.0068 34.7741 40.9499 35.6111L38.2413 38.1064L38.783 41.2711L41.603 39.4149C41.8587 39.9215 42.2236 40.365 42.6712 40.7132L41.3498 44.3699L43.8813 44.9278L46.5342 42.3412C47.1468 42.2448 46.9949 41.0885 47.6632 40.7589L48.4682 43.4265L51.4704 41.0632L51.3945 39.8257C52.002 39.1461 54.3005 37.6499 54.7967 36.8689L55.4194 35.8546L57.161 31.9443L56.351 30.4735L55.4498 28.5565L58.1331 26.046ZM48.9441 36.4479C46.6354 38.2636 45.9064 38.6643 45.5165 36.2349C45.1267 33.8056 46.4481 30.1135 48.7568 28.2927C51.0654 26.472 51.9463 26.3452 52.3615 28.7695C52.7766 31.1937 51.2578 34.6526 48.9441 36.4479Z" fill="#E0E0E0"/>
<path d="M52.5396 19.2324L55.8203 21.1292L53.9673 24.6642L50.6866 22.7724L52.5396 19.2324Z" fill="#6D9CFF"/>
<path d="M60.8682 24.7855L58.0532 26.6417L54.7725 24.75L57.5875 22.8887L60.8682 24.7855Z" fill="#6D9CFF"/>
<path d="M60.4171 33.8329L58.2857 32.92L55.0049 31.0232L57.1364 31.9361L60.4171 33.8329Z" fill="#E0E0E0"/>
<path d="M41.3448 44.3723L44.6255 46.2691L45.9722 42.6175L42.6915 40.7207L41.3448 44.3723Z" fill="#E0E0E0"/>
<path d="M51.7254 45.3321L48.4396 43.4353L47.6397 40.7676L50.9204 42.6644L51.7254 45.3321Z" fill="#E0E0E0"/>
<path d="M61.4146 27.9444L60.8729 24.7848L58.0579 26.641C57.7989 26.1336 57.4326 25.6889 56.9846 25.3376L58.3313 21.686L55.8252 21.123L53.9672 24.6732C53.2968 24.7865 52.6468 24.9984 52.0382 25.3021L51.2383 22.6344L48.231 25.0029L48.4284 28.1473C47.8154 28.8393 47.26 29.5806 46.7678 30.3636L44.282 30.2368L42.5404 34.1471L44.6718 35.06C44.4513 35.8709 44.3106 36.7016 44.2516 37.54L41.5481 39.9997L42.0898 43.1645L44.9047 41.3082C45.1639 41.8141 45.5302 42.2572 45.978 42.6066L44.6313 46.2582L47.1627 46.8211L49.0157 43.271C49.6887 43.1589 50.3408 42.9452 50.9497 42.637L51.7497 45.3047L54.757 42.9413L54.5595 39.7969C55.1719 39.1097 55.7273 38.3735 56.2201 37.5958L58.706 37.7175L60.4476 33.8073L58.2858 32.8994C58.5099 32.0891 58.6524 31.2582 58.711 30.4194L61.4146 27.9444ZM52.2357 38.3667C49.9321 40.1823 47.7247 39.6904 47.3045 37.2661C46.8843 34.8419 48.4183 31.3982 50.727 29.5826C53.0356 27.7669 55.2379 28.2639 55.6582 30.6882C56.0784 33.1124 54.5443 36.551 52.2357 38.3667Z" fill="#1F67FF"/>
<path d="M51.2324 22.6273L47.9467 20.7305L44.9444 23.0989L48.2251 24.9907L51.2324 22.6273Z" fill="#6D9CFF"/>
<path d="M44.9444 23.0996L45.1418 26.239L48.4226 28.1358L48.2251 24.9913L44.9444 23.0996Z" fill="#E0E0E0"/>
<path d="M46.7637 30.3408L43.483 28.444L40.9971 28.3223L44.2829 30.2191L46.7637 30.3408Z" fill="#F5F5F5"/>
<path d="M40.9966 28.3223L39.2549 32.2325L42.5407 34.1293L44.2823 30.2191L40.9966 28.3223Z" fill="#6D9CFF"/>
<path d="M44.2501 37.5159L40.9644 35.6191L38.2608 38.1144L41.5415 40.0112L44.2501 37.5159Z" fill="#F5F5F5"/>
<path d="M42.0832 43.1697L38.8025 41.2729L38.2608 38.1133L41.5415 40.0101L42.0832 43.1697Z" fill="#6D9CFF"/>
<path d="M55.8189 21.1292L52.5381 19.2324L55.0442 19.7954L58.33 21.6922L55.8189 21.1292Z" fill="#F5F5F5"/>
<path d="M43.4209 11.7046V6.98288L39.6693 8.67681C39.4706 7.87572 39.1275 7.11774 38.6568 6.44021L41.0211 1.66778L38.1353 -0.00585938L35.1888 4.43691C34.3676 4.36505 33.5403 4.44586 32.7485 4.67528L32.3333 0.572309L28.2527 2.9357L27.8426 7.50019C26.9545 8.28848 26.1379 9.15405 25.4023 10.0867L22.4557 9.0724L19.5699 14.0832L21.9292 16.1119C21.4933 17.2162 21.1545 18.3566 20.9167 19.52L17.1651 22.1623V26.8891L20.9167 25.1952C21.1154 25.9963 21.4585 26.7543 21.9292 27.4318L19.5801 32.2093L22.4659 33.8779L25.4124 29.4402C26.2336 29.5118 27.0609 29.431 27.8527 29.2018L28.2628 33.3048L32.3434 30.9414L32.7586 26.3769C34.0322 25.9114 35.1605 25.1171 36.0292 24.0744L38.1454 24.8199L41.0312 19.8142L39.2593 18.2927C39.6439 17.0239 39.7865 15.6939 39.6795 14.3723L43.4209 11.7046ZM30.293 23.5013C27.1642 25.3118 25.2302 24.0084 25.2302 20.4025C25.2302 16.7965 27.8173 12.3385 30.9512 10.528C34.0851 8.71739 35.9786 10.0208 35.9786 13.6572C35.9786 17.2936 33.4269 21.6856 30.293 23.5013Z" fill="#E0E0E0"/>
<path d="M41.417 1.8968L38.1312 0L35.1846 4.4377L38.4704 6.3345L41.417 1.8968Z" fill="#6D9CFF"/>
<path d="M46.7032 8.88508L43.4225 6.98828L39.671 8.68221L42.9517 10.579L46.7032 8.88508Z" fill="#6D9CFF"/>
<path d="M31.5328 35.2088L28.2521 33.3069L27.837 29.209L31.1227 31.1058L31.5328 35.2088Z" fill="#E0E0E0"/>
<path d="M19.5635 32.215L22.8493 34.1118L25.2136 29.3343L21.9279 27.4375L19.5635 32.215Z" fill="#E0E0E0"/>
<path d="M46.708 13.628V8.9063L42.9565 10.585C42.7598 9.7832 42.4165 9.02485 41.9439 8.34842L44.3082 3.57599L41.4224 1.90234L38.4759 6.34511C37.6547 6.27075 36.8269 6.35161 36.0356 6.58348L35.6204 2.47037L31.5398 4.83376L31.1246 9.39825C30.2378 10.1879 29.4213 11.0533 28.6844 11.9848L25.7378 10.9705L22.852 15.9813L25.2163 18.0099C24.7781 19.1135 24.4392 20.2541 24.2038 21.4181L20.4522 24.0604V28.7872L24.2038 27.0933C24.4003 27.8951 24.7436 28.6535 25.2163 29.3299L22.852 34.1023L25.7378 35.7709L28.6844 31.3332C29.5055 31.405 30.3328 31.3242 31.1246 31.0948L31.5398 35.1978L35.6204 32.8344L36.0305 28.2699C36.9186 27.4816 37.7352 26.616 38.4708 25.6833L41.4174 26.6977L44.3032 21.6919L41.9388 19.6633C42.3769 18.5597 42.7158 17.4191 42.9514 16.2551L46.708 13.628ZM33.5801 25.4247C30.4462 27.2353 27.9047 25.7645 27.9047 22.1433C27.9047 18.5222 30.4361 14.1149 33.5801 12.2992C36.7241 10.4836 39.2505 11.9594 39.2505 15.5806C39.2505 19.2018 36.7089 23.5837 33.5801 25.3993V25.4247Z" fill="#1F67FF"/>
<path d="M25.3949 10.0999L28.6806 11.9967L25.7341 10.9671L22.4483 9.07031L25.3949 10.0999Z" fill="#F0F0F0"/>
<path d="M22.454 9.06759L19.5674 14.0801L22.8521 15.9783L25.7387 10.9658L22.454 9.06759Z" fill="#6D9CFF"/>
<path d="M19.5635 14.0781L22.8493 15.9749L25.2136 18.0137L21.9279 16.1169L19.5635 14.0781Z" fill="#E0E0E0"/>
<path d="M20.9167 19.5254L24.1974 21.4222L20.4458 24.0696L17.1651 22.1728L20.9167 19.5254Z" fill="#F5F5F5"/>
<path d="M17.1651 22.1719L20.4458 24.0687V28.7904L17.1651 26.8936V22.1719Z" fill="#6D9CFF"/>
<path d="M35.6174 2.46711L32.3317 0.570312L28.251 2.9337L31.5317 4.8305L35.6174 2.46711Z" fill="#6D9CFF"/>
<path d="M77.7383 137.907L125.329 110.378C125.434 110.341 125.525 110.272 125.589 110.182C125.653 110.091 125.688 109.982 125.688 109.871C125.688 109.759 125.653 109.651 125.589 109.56C125.525 109.469 125.434 109.401 125.329 109.364L120.929 106.828C120.657 106.69 120.356 106.619 120.051 106.619C119.746 106.619 119.445 106.69 119.172 106.828L71.5667 134.331C71.4619 134.368 71.3711 134.437 71.3068 134.528C71.2426 134.619 71.2081 134.727 71.2081 134.839C71.2081 134.95 71.2426 135.058 71.3068 135.149C71.3711 135.24 71.4619 135.309 71.5667 135.346L75.9815 137.882C76.252 138.023 76.5518 138.099 76.8569 138.103C77.162 138.108 77.4638 138.04 77.7383 137.907Z" fill="#0052FE"/>
<path d="M124.024 4.09457L81.1112 28.9152C80.4733 29.3323 79.9424 29.894 79.5615 30.5548C79.1807 31.2156 78.9606 31.9571 78.919 32.719V134.695C78.919 136.095 79.9012 136.663 81.1112 135.963L124.024 111.142C124.662 110.726 125.194 110.164 125.575 109.503C125.956 108.842 126.176 108.1 126.216 107.338V5.36248C126.216 3.96271 125.239 3.39468 124.024 4.09457Z" fill="#455A64"/>
<path d="M81.1125 28.9117L124.025 4.091C125.108 3.46212 126.005 3.85264 126.187 4.94304C126.086 4.25748 125.841 3.60115 125.468 3.01724C125.095 2.43332 124.604 1.93504 124.025 1.55518L122.243 0.540845C121.563 0.195567 120.812 0.015625 120.051 0.015625C119.289 0.015625 118.538 0.195567 117.858 0.540845L74.9409 25.3412C74.2945 25.7473 73.7615 26.3109 73.3917 26.9794L79.5632 30.5295C79.9329 29.8663 80.4663 29.3093 81.1125 28.9117Z" fill="#37474F"/>
<path d="M72.7375 131.123C72.779 131.885 72.9992 132.626 73.38 133.287C73.7609 133.948 74.2918 134.51 74.9297 134.927L76.7169 135.941C77.3354 136.251 78.0124 136.427 78.7034 136.456C79.3944 136.486 80.0838 136.369 80.7266 136.114C79.7141 136.509 78.9091 135.926 78.9091 134.673V32.7177C78.9344 31.9525 79.1559 31.2068 79.5521 30.5521L73.3805 27.002C72.9898 27.6517 72.7687 28.3894 72.7375 29.1473V131.123Z" fill="#263238"/>
<path d="M82.2944 42.5011L122.863 19.0447C123.592 18.6288 124.179 18.9686 124.179 19.8054V95.2818C124.155 95.7392 124.023 96.1844 123.794 96.581C123.565 96.9776 123.246 97.3145 122.863 97.564L82.3096 121.02C81.5805 121.441 80.9932 121.102 80.9932 120.26V44.7833C81.0163 44.3273 81.146 43.8832 81.3721 43.4867C81.5981 43.0903 81.914 42.7526 82.2944 42.5011Z" fill="white"/>
<path d="M102.569 20.3658C102.345 20.513 102.159 20.7109 102.026 20.9435C101.892 21.176 101.815 21.4367 101.8 21.7047C101.8 22.2119 102.144 22.3995 102.569 22.151C102.794 22.0046 102.981 21.807 103.115 21.5742C103.249 21.3415 103.325 21.0803 103.339 20.8121C103.339 20.3201 102.995 20.1223 102.569 20.3658Z" fill="#37474F"/>
<path d="M102.568 112.901C101.683 113.481 100.947 114.262 100.419 115.18C99.891 116.098 99.5866 117.128 99.5302 118.186C99.5302 120.129 100.892 120.92 102.568 119.946C103.453 119.366 104.189 118.585 104.716 117.667C105.244 116.749 105.549 115.719 105.606 114.661C105.616 112.719 104.249 111.928 102.568 112.901Z" fill="#37474F"/>
<path d="M95.2855 28.2201C94.8406 28.516 94.4713 28.9125 94.2074 29.3776C93.9436 29.8428 93.7926 30.3636 93.7667 30.8979C93.7667 31.8818 94.4552 32.2825 95.2855 31.7905C95.7352 31.4975 96.1094 31.1022 96.3777 30.6369C96.646 30.1715 96.8009 29.6493 96.8297 29.1127C96.8297 28.1288 96.1411 27.7282 95.2855 28.2201Z" fill="#37474F"/>
<path d="M99.0655 27.8844C99.0655 28.5437 99.5718 28.7922 100.164 28.4423L110.29 22.5744C110.603 22.3782 110.866 22.1105 111.057 21.7933C111.248 21.476 111.362 21.1181 111.388 20.7486C111.388 20.0943 110.882 19.8458 110.29 20.1958L100.164 26.0637C99.8511 26.2594 99.5885 26.5262 99.3977 26.8426C99.2068 27.1589 99.093 27.5158 99.0655 27.8844Z" fill="#37474F"/>
<path d="M76.161 45.7662C76.5203 46.0006 76.8194 46.3165 77.034 46.6884C77.2486 47.0602 77.3727 47.4775 77.3963 47.9064C77.3963 48.6976 76.8445 49.0171 76.161 48.6215C75.8029 48.3862 75.505 48.0699 75.2914 47.6982C75.0777 47.3264 74.9541 46.9096 74.9307 46.4813C74.9307 45.6952 75.4826 45.3756 76.161 45.7662Z" fill="#37474F"/>
<path d="M76.161 55.2908C76.5203 55.5252 76.8194 55.8412 77.034 56.213C77.2486 56.5849 77.3727 57.0021 77.3963 57.431C77.3963 58.2171 76.8445 58.5366 76.161 58.1461C75.8029 57.9108 75.505 57.5946 75.2914 57.2228C75.0777 56.8511 74.9541 56.4342 74.9307 56.0059C74.9307 55.2147 75.4826 54.8952 76.161 55.2908Z" fill="#37474F"/>
<path d="M75.7774 45.9599C76.1367 46.1943 76.4357 46.5103 76.6504 46.8821C76.865 47.254 76.9891 47.6712 77.0127 48.1001C77.0127 48.8862 76.4609 49.2057 75.7774 48.8152C75.4181 48.5808 75.119 48.2648 74.9044 47.893C74.6898 47.5211 74.5656 47.1039 74.5421 46.675C74.5471 45.8838 75.099 45.5795 75.7774 45.9599Z" fill="#455A64"/>
<path d="M75.7774 55.479C76.1373 55.714 76.4368 56.0307 76.6515 56.4035C76.8662 56.7763 76.9899 57.1946 77.0127 57.6244C77.0127 58.4105 76.4609 58.73 75.7774 58.3344C75.4173 58.1009 75.1175 57.7851 74.9028 57.4131C74.6881 57.041 74.5644 56.6233 74.5421 56.1941C74.5471 55.408 75.099 55.0885 75.7774 55.479Z" fill="#455A64"/>
<path d="M132.39 22.1953C132.39 21.3534 131.803 21.0136 131.074 21.4345L126.218 24.2391L90.5205 44.8909C90.1371 45.1405 89.8179 45.4773 89.5892 45.8739C89.3604 46.2706 89.2285 46.7157 89.2042 47.1732V122.629C89.2042 123.471 89.7914 123.811 90.5205 123.39L126.234 102.733L131.074 99.9336C131.457 99.684 131.776 99.3472 132.005 98.9506C132.234 98.5539 132.366 98.1088 132.39 97.6513V22.1953Z" fill="white" stroke="#27DEBF" stroke-width="0.565386" stroke-miterlimit="10"/>
<path d="M89.9521 123.827C89.7732 123.829 89.5974 123.78 89.4458 123.685C89.2733 123.567 89.1354 123.405 89.0464 123.216C88.9574 123.027 88.9205 122.818 88.9395 122.609V47.1736C88.9627 46.6716 89.1058 46.1824 89.3569 45.7473C89.608 45.3123 89.9597 44.9439 90.3824 44.6733L126.08 24.0215L126.334 24.4627L90.6356 45.1094C90.2913 45.3378 90.0047 45.6431 89.7983 46.0013C89.5918 46.3595 89.4712 46.7608 89.4458 47.1736V122.63C89.4108 122.75 89.4169 122.878 89.4633 122.994C89.5096 123.11 89.5935 123.207 89.7015 123.269C89.8094 123.332 89.9352 123.356 90.0587 123.339C90.1821 123.321 90.2961 123.263 90.3824 123.172L126.096 102.515L126.349 102.957L90.6356 123.614C90.4289 123.74 90.194 123.814 89.9521 123.827Z" fill="#0C7CEC" stroke="#0C7CEC" stroke-width="0.565386" stroke-miterlimit="10"/>
<path d="M126.359 102.955L126.106 102.513L130.946 99.7139C131.29 99.4855 131.577 99.1802 131.783 98.822C131.99 98.4638 132.111 98.0625 132.136 97.6497V22.1936C132.171 22.0737 132.165 21.9455 132.118 21.8295C132.072 21.7136 131.988 21.6165 131.88 21.554C131.772 21.4914 131.646 21.467 131.523 21.4846C131.4 21.5022 131.286 21.5608 131.199 21.651L126.344 24.4607L126.091 24.0194L130.961 21.2351C131.126 21.1011 131.327 21.0203 131.539 21.0033C131.75 20.9864 131.962 21.0341 132.145 21.1402C132.329 21.2462 132.476 21.4056 132.568 21.5974C132.659 21.7891 132.691 22.0041 132.657 22.2139V97.6497C132.634 98.1523 132.49 98.642 132.239 99.0779C131.988 99.5137 131.637 99.883 131.214 100.155L126.359 102.955Z" fill="#27DEBF" stroke="#0C7CEC" stroke-width="0.565386" stroke-miterlimit="10"/>
<path opacity="0.5" d="M110.795 38.9215C115.738 36.072 119.719 38.3714 119.719 44.0868C119.719 49.8021 115.721 56.7387 110.795 59.5661C105.87 62.3936 101.872 60.1162 101.872 54.4063C101.872 48.6965 105.87 41.7764 110.795 38.9215Z" fill="#D0F3FF"/>
<path d="M115.266 41.5984L106.583 56.4354L109.286 54.8751L110.079 53.115L114.571 43.14L115.266 41.5984Z" fill="url(#paint5_linear_1_981)"/>
<path d="M112.706 43.076L112.429 43.6819L108.072 53.1873L106.583 56.4354L115.266 41.5984L112.706 43.076Z" fill="url(#paint6_linear_1_981)"/>
<path d="M114.405 50.2041L114.293 50.0855C114.199 49.9864 114.047 49.9834 113.885 50.0767L111.843 51.2559C111.767 51.2996 111.709 51.3853 111.681 51.4704L115.456 51.3127L114.405 50.2041Z" fill="#F69300"/>
<path d="M111.683 51.4704C111.658 51.5461 111.657 51.6212 111.694 51.6653L112.114 52.1601L112.115 52.1595L112.732 52.8868L115.458 51.3125L111.683 51.4702L111.683 51.4704Z" fill="url(#paint7_linear_1_981)"/>
<path d="M110.452 46.1977L109.806 45.4748L109.38 44.9989L106.712 46.5391L110.41 46.5048C110.483 46.4004 110.51 46.2626 110.452 46.1975L110.452 46.1977Z" fill="url(#paint8_linear_1_981)"/>
<path d="M106.712 46.5353L107.85 47.7727C107.855 47.7775 107.859 47.7813 107.864 47.7861C107.958 47.874 108.104 47.8738 108.261 47.7837L110.304 46.6039C110.346 46.5798 110.381 46.5425 110.411 46.5004L106.712 46.5347L106.712 46.5353Z" fill="#F69300"/>
<path d="M94.8789 70.3489L105.465 64.2274C105.972 63.9484 106.341 64.1716 106.341 64.7345V65.0845C106.325 65.3893 106.237 65.686 106.085 65.9504C105.933 66.2148 105.721 66.4394 105.465 66.606L94.8789 72.7275C94.3979 73.0064 94.003 72.7782 94.003 72.2203V71.8704C94.0194 71.5657 94.1073 71.2691 94.2595 71.0048C94.4116 70.7404 94.6238 70.5157 94.8789 70.3489Z" fill="#27DEBF"/>
<path d="M94.8789 70.3489L105.465 64.2274C105.972 63.9484 106.341 64.1716 106.341 64.7345V65.0845C106.325 65.3893 106.237 65.686 106.085 65.9504C105.933 66.2148 105.721 66.4394 105.465 66.606L94.8789 72.7275C94.3979 73.0064 94.003 72.7782 94.003 72.2203V71.8704C94.0194 71.5657 94.1073 71.2691 94.2595 71.0048C94.4116 70.7404 94.6238 70.5157 94.8789 70.3489Z" fill="#D0F3FF"/>
<path d="M94.4435 77.7375L126.471 59.2159C126.709 59.0738 126.906 59.1854 126.906 59.4694V63.2123C126.897 63.3642 126.853 63.512 126.778 63.644C126.702 63.776 126.597 63.8886 126.471 63.9731L94.4435 82.4947C94.2004 82.6368 94.003 82.5201 94.003 82.2412V78.4983C94.0117 78.3458 94.0561 78.1974 94.1326 78.0653C94.2091 77.9331 94.3156 77.8208 94.4435 77.7375Z" fill="#D0F3FF"/>
<path d="M94.8789 86.9984L105.465 80.8769C105.972 80.5979 106.341 80.8261 106.341 81.384V81.734C106.325 82.0389 106.238 82.3357 106.086 82.6002C105.933 82.8646 105.721 83.0892 105.465 83.2555L94.8789 89.3769C94.3979 89.661 94.003 89.4327 94.003 88.8698V88.5199C94.0202 88.2153 94.1084 87.9191 94.2605 87.6549C94.4126 87.3907 94.6244 87.1658 94.8789 86.9984Z" fill="#27DEBF"/>
<path d="M94.8789 86.9984L105.465 80.8769C105.972 80.5979 106.341 80.8261 106.341 81.384V81.734C106.325 82.0389 106.238 82.3357 106.086 82.6002C105.933 82.8646 105.721 83.0892 105.465 83.2555L94.8789 89.3769C94.3979 89.661 94.003 89.4327 94.003 88.8698V88.5199C94.0202 88.2153 94.1084 87.9191 94.2605 87.6549C94.4126 87.3907 94.6244 87.1658 94.8789 86.9984Z" fill="#D0F3FF"/>
<path d="M94.4435 94.387L126.471 75.8653C126.709 75.7233 126.906 75.84 126.906 76.1189V79.8618C126.897 80.0137 126.853 80.1614 126.778 80.2934C126.702 80.4254 126.597 80.5381 126.471 80.6225L94.4435 99.1442C94.2004 99.2862 94.003 99.1746 94.003 98.8906V95.1478C94.0117 94.9952 94.0561 94.8469 94.1326 94.7147C94.2091 94.5826 94.3156 94.4703 94.4435 94.387Z" fill="#27DEBF"/>
<path d="M94.4435 94.387L126.471 75.8653C126.709 75.7233 126.906 75.84 126.906 76.1189V79.8618C126.897 80.0137 126.853 80.1614 126.778 80.2934C126.702 80.4254 126.597 80.5381 126.471 80.6225L94.4435 99.1442C94.2004 99.2862 94.003 99.1746 94.003 98.8906V95.1478C94.0117 94.9952 94.0561 94.8469 94.1326 94.7147C94.2091 94.5826 94.3156 94.4703 94.4435 94.387Z" fill="#D0F3FF"/>
<path d="M107.219 96.5164L119.876 89.2081C120.382 88.9241 120.757 89.1523 120.757 89.7153V93.6306C120.74 93.9359 120.652 94.2328 120.499 94.4973C120.345 94.7617 120.132 94.9861 119.876 95.1521L107.219 102.465C106.712 102.744 106.343 102.516 106.343 101.958V98.0379C106.36 97.7335 106.449 97.4374 106.601 97.1732C106.753 96.9091 106.965 96.6841 107.219 96.5164Z" fill="#27DEBF"/>
<path d="M107.219 96.5164L119.876 89.2081C120.382 88.9241 120.757 89.1523 120.757 89.7153V93.6306C120.74 93.9359 120.652 94.2328 120.499 94.4973C120.345 94.7617 120.132 94.9861 119.876 95.1521L107.219 102.465C106.712 102.744 106.343 102.516 106.343 101.958V98.0379C106.36 97.7335 106.449 97.4374 106.601 97.1732C106.753 96.9091 106.965 96.6841 107.219 96.5164Z" fill="#D0F3FF"/>
<path d="M137.188 79.9911C137.188 79.9911 130.971 71.3997 130.607 70.3549C130.318 69.584 130.607 68.4379 130.698 67.9053C130.789 67.3728 130.87 66.186 130.961 65.8767C131.113 65.2985 130.369 65.4151 129.949 65.9426C129.528 66.47 129.387 67.525 129.169 67.6974C128.951 67.8698 127.296 65.4506 126.43 64.3349C125.564 63.2191 125.022 62.5395 124.491 62.9554C124.111 63.2546 124.395 63.9038 125.022 64.8573C125.389 65.3707 125.727 65.904 126.035 66.4548C126.131 66.6628 125.615 66.678 125.336 67.1091C125.119 67.4438 125.336 67.9865 125.033 68.2451C124.846 68.3876 124.718 68.5941 124.673 68.8251C124.628 69.0561 124.669 69.2955 124.79 69.4978C125.353 70.3844 126.08 71.1555 126.931 71.7699C127.863 72.414 128.237 72.6423 128.789 73.5196C129.341 74.397 134.292 83.3587 134.627 83.8963C134.961 84.4339 135.604 85.5293 136.581 85.5598C137.558 85.5902 145.557 78.6927 145.967 78.3479C147.284 77.2473 147.704 77.085 147.927 78.0791C148.004 78.4306 148.061 78.7862 148.099 79.1441C148.256 80.4019 149.111 84.8954 149.111 84.8954C149.111 84.8954 153.162 86.8581 156.488 85.9097C159.814 84.9613 160.938 83.5463 160.938 83.5463L159.272 80.8279C159.723 79.7071 161.804 75.1629 162.477 71.9829L152.048 70.2941C151.835 70.2484 151.491 70.1622 151.035 70.0456C150.463 69.8934 149.01 69.3913 147.911 70.3549C144.327 73.4841 137.199 79.9911 137.199 79.9911" fill="#FFA8A7"/>
<path d="M157.865 132.704L155.997 135.306C156.846 135.703 157.774 135.902 158.711 135.889C160.387 135.95 160.847 135.382 160.908 135.27C161.192 134.662 160.751 133.566 160.63 132.623L157.865 132.704Z" fill="#37474F"/>
<path d="M156.102 134.058C156.102 134.058 153.834 133.911 152.269 133.718C150.705 133.525 149.464 134.286 149.829 134.93C150.193 135.574 151.059 136.112 152.406 136.563C153.555 136.954 154.937 137.233 156.132 137.577C157.327 137.922 158.157 138.374 158.851 138.13C159.625 137.861 159.96 137.552 159.894 136.984C159.725 136.176 159.515 135.377 159.266 134.59L156.102 134.058Z" fill="#37474F"/>
<path d="M160.908 130.095C160.908 130.095 160.624 132.459 160.604 132.966C160.584 133.473 158.3 133.635 157.865 132.707L157.794 129.816L160.908 130.095Z" fill="#F28F8F"/>
<path d="M158.609 131.543L159.425 135.134C159.425 135.134 159.501 135.57 157.637 135.849C155.774 136.128 152.848 134.87 152.347 134.616C151.846 134.363 151.79 133.851 153.623 133.952C155.455 134.053 156.103 134.059 156.103 134.059L155.506 132.471L158.609 131.543Z" fill="#FFA8A7"/>
<path d="M162.447 71.9499L163.738 71.5898C163.738 71.5898 166.436 80.1457 166.735 80.9724C167.034 81.7991 167.373 82.6714 166.791 83.6908C166.097 84.9029 162.447 89.7768 162.447 89.7768L160.128 87.5047L162.761 82.6765L160.432 77.9598L162.447 71.9499Z" fill="#F28F8F"/>
<path d="M149.188 60.8393C148.886 60.2701 148.732 59.6334 148.742 58.9886C148.751 58.3438 148.924 57.7119 149.244 57.1522C150.53 54.7635 153.395 53.6021 156.808 54.0433C158.387 54.2512 160.251 55.5648 161.268 57.5275C162.392 59.7032 162.498 64.0852 162.787 65.7436L149.188 60.8393Z" fill="#37474F"/>
<path d="M149.098 61.7773C149.098 61.7773 148.288 63.3242 148.43 63.4662C148.64 63.5891 148.869 63.6748 149.108 63.7198L149.098 61.7773Z" fill="#FFA8A7"/>
<path d="M151.557 56.8872C150.676 57.4603 149.158 58.5152 149.092 61.9893C149.021 65.5395 149.527 66.711 150.054 67.1218C150.408 67.4008 152.489 67.2588 153.38 67.0508C154.271 66.8429 156.838 65.5699 157.764 63.6376C158.853 61.3655 158.63 58.0588 157.015 57.0444C156.193 56.5575 155.261 56.2876 154.306 56.2601C153.352 56.2326 152.406 56.4484 151.557 56.8872Z" fill="#FFA8A7"/>
<path d="M160.908 83.5254C162.467 85.9598 163.945 88.0899 164.269 90.8387C164.938 96.6153 162.75 103.219 162.28 107.494C163.165 108.71 163.676 110.159 163.748 111.663C163.748 113.433 160.908 130.093 160.908 130.093C160.908 130.093 158.842 130.722 157.794 129.814L155.845 99.1664L156.857 95.4336L160.908 83.5254Z" fill="#27DEBF"/>
<path opacity="0.2" d="M160.908 83.5254C162.467 85.9598 163.945 88.0899 164.269 90.8387C164.938 96.6153 162.75 103.219 162.28 107.494C163.165 108.71 163.676 110.159 163.748 111.663C163.748 113.433 160.908 130.093 160.908 130.093C160.908 130.093 158.842 130.722 157.794 129.814L155.845 99.1664L156.857 95.4336L160.908 83.5254Z" fill="black"/>
<path d="M155.845 99.1659L156.857 95.4331C158.796 94.9219 160.666 94.1777 162.426 93.2168C162.426 93.2168 161.373 95.139 158.346 96.1939L156.781 100.987L156.65 111.967L155.845 99.1659Z" fill="#27DEBF"/>
<path opacity="0.3" d="M155.845 99.1659L156.857 95.4331C158.796 94.9219 160.666 94.1777 162.426 93.2168C162.426 93.2168 161.373 95.139 158.346 96.1939L156.781 100.987L156.65 111.967L155.845 99.1659Z" fill="black"/>
<path d="M160.907 83.5254C161.742 84.8947 163.737 87.2277 163.312 89.4744C162.806 92.1928 161.337 94.1049 156.872 95.4336L152.68 110.649C152.68 110.649 154.862 112.677 155.53 114.64C156.199 116.603 158.608 131.554 158.608 131.554C158.608 131.554 157.859 132.776 155.505 132.482C155.505 132.482 147.298 113.717 146.721 112.495C146.02 111.257 145.775 109.812 146.027 108.412C146.286 106.444 149.065 84.9049 149.065 84.9049L160.907 83.5254Z" fill="#27DEBF"/>
<path opacity="0.2" d="M160.907 83.5254C161.742 84.8947 163.737 87.2277 163.312 89.4744C162.806 92.1928 161.337 94.1049 156.872 95.4336L152.68 110.649C152.68 110.649 154.862 112.677 155.53 114.64C156.199 116.603 158.608 131.554 158.608 131.554C158.608 131.554 157.859 132.776 155.505 132.482C155.505 132.482 147.298 113.717 146.721 112.495C146.02 111.257 145.775 109.812 146.027 108.412C146.286 106.444 149.065 84.9049 149.065 84.9049L160.907 83.5254Z" fill="black"/>
<path d="M162.448 71.9532L152.018 70.2644C151.806 70.2187 151.461 70.1325 151.006 70.0159C151.006 70.0159 150.56 76.5684 147.882 78.0697C147.948 78.3841 148.003 78.734 148.054 79.1347C148.211 80.3925 149.067 84.886 149.067 84.886C149.067 84.886 153.117 86.8487 156.443 85.9003C159.769 84.9519 160.893 83.5369 160.893 83.5369L159.228 80.8185C159.693 79.6875 161.789 75.1433 162.448 71.9532Z" fill="#27DEBF"/>
<path d="M162.448 71.9532L152.018 70.2644C151.806 70.2187 151.461 70.1325 151.006 70.0159C151.006 70.0159 150.56 76.5684 147.882 78.0697C147.948 78.3841 148.003 78.734 148.054 79.1347C148.211 80.3925 149.067 84.886 149.067 84.886C149.067 84.886 153.117 86.8487 156.443 85.9003C159.769 84.9519 160.893 83.5369 160.893 83.5369L159.228 80.8185C159.693 79.6875 161.789 75.1433 162.448 71.9532Z" fill="#FFBE02"/>
<path d="M159.698 79.7366C158.312 80.5697 156.861 81.2872 155.359 81.8819C156.723 81.8546 158.058 81.4849 159.242 80.8067L159.698 79.7366Z" fill="#D3A10E"/>
<path d="M151.297 57.0636C151.297 57.0636 150.791 60.3601 151.986 62.2975C151.986 62.2975 152.431 60.984 153.54 61.2325C154.649 61.481 154.709 62.9467 153.93 63.7683C153.731 63.9992 153.471 64.1692 153.18 64.2589C152.889 64.3486 152.578 64.3544 152.284 64.2755C152.284 64.2755 152.112 66.6591 152.016 68.6574C151.92 70.6556 151.393 75.0122 153.636 76.772C155.879 78.5319 161.509 79.1506 164.146 75.4585C165.615 73.4044 163.665 69.7731 162.759 65.7006C161.924 61.9577 161.453 56.4093 157.489 55.5167C153.525 54.6241 151.297 57.0636 151.297 57.0636Z" fill="#37474F"/>
<path d="M165.844 12.0199L165.009 12.5271C165.079 12.2293 165.118 11.9251 165.125 11.6192C165.125 9.92023 163.936 9.23556 162.467 10.0977C162.021 10.3677 161.622 10.7106 161.288 11.1121C161.288 8.82983 159.688 7.90171 157.713 9.04284C156.673 9.72258 155.807 10.6384 155.186 11.7161C154.565 12.7938 154.206 14.0029 154.139 15.2455C154.139 15.3621 154.139 15.4737 154.139 15.5853C153.63 15.5212 153.116 15.6398 152.686 15.92C151.912 16.425 151.269 17.1056 150.807 17.9067C150.345 18.7077 150.078 19.6065 150.028 20.5301C150.028 20.7449 150.05 20.959 150.094 21.1692L149.648 21.4278C148.438 22.1277 147.456 23.492 147.456 24.4708C147.456 25.4496 148.438 25.6829 149.648 24.978L165.849 15.6208C167.059 14.9209 168.042 13.5566 168.042 12.5778C168.042 11.599 167.054 11.3149 165.844 12.0199Z" fill="#1F67FF"/>
</g>
<defs>
<filter id="filter0_d_1_981" x="0.669006" y="0" width="186.662" height="174.223" filterUnits="userSpaceOnUse" color-interpolation-filters="sRGB">
<feFlood flood-opacity="0" result="BackgroundImageFix"/>
<feColorMatrix in="SourceAlpha" type="matrix" values="0 0 0 0 0 0 0 0 0 0 0 0 0 0 0 0 0 0 127 0" result="hardAlpha"/>
<feOffset dy="4"/>
<feGaussianBlur stdDeviation="2"/>
<feComposite in2="hardAlpha" operator="out"/>
<feColorMatrix type="matrix" values="0 0 0 0 0 0 0 0 0 0 0 0 0 0 0 0 0 0 0.25 0"/>
<feBlend mode="normal" in2="BackgroundImageFix" result="effect1_dropShadow_1_981"/>
<feBlend mode="normal" in="SourceGraphic" in2="effect1_dropShadow_1_981" result="shape"/>
</filter>
<linearGradient id="paint0_linear_1_981" x1="27.882" y1="127.65" x2="39.8997" y2="127.65" gradientUnits="userSpaceOnUse">
<stop stop-color="#02CDFF"/>
<stop offset="0.494791" stop-color="#03C0FF"/>
<stop offset="1" stop-color="#005AFD"/>
</linearGradient>
<linearGradient id="paint1_linear_1_981" x1="17.1553" y1="128.693" x2="31.8719" y2="128.693" gradientUnits="userSpaceOnUse">
<stop stop-color="#FFCE00"/>
<stop offset="1" stop-color="#FFB003"/>
</linearGradient>
<linearGradient id="paint2_linear_1_981" x1="125.357" y1="97.9985" x2="139.416" y2="97.9985" gradientUnits="userSpaceOnUse">
<stop stop-color="#FFCE00"/>
<stop offset="1" stop-color="#FFB003"/>
</linearGradient>
<linearGradient id="paint3_linear_1_981" x1="53.6502" y1="88.5795" x2="75.7253" y2="88.5795" gradientUnits="userSpaceOnUse">
<stop stop-color="#02CDFF"/>
<stop offset="0.494791" stop-color="#03C0FF"/>
<stop offset="1" stop-color="#005AFD"/>
</linearGradient>
<linearGradient id="paint4_linear_1_981" x1="42.6905" y1="108.563" x2="72.7382" y2="108.563" gradientUnits="userSpaceOnUse">
<stop stop-color="#FFCE00"/>
<stop offset="1" stop-color="#FFB003"/>
</linearGradient>
<linearGradient id="paint5_linear_1_981" x1="113.315" y1="45.3609" x2="110.508" y2="52.0313" gradientUnits="userSpaceOnUse">
<stop stop-color="#FFAC00"/>
<stop offset="1" stop-color="#FE7801"/>
</linearGradient>
<linearGradient id="paint6_linear_1_981" x1="106.583" y1="51.5236" x2="115.266" y2="51.5236" gradientUnits="userSpaceOnUse">
<stop stop-color="#FFCE00"/>
<stop offset="1" stop-color="#FFB003"/>
</linearGradient>
<linearGradient id="paint7_linear_1_981" x1="111.665" y1="52.4918" x2="115.458" y2="52.4918" gradientUnits="userSpaceOnUse">
<stop stop-color="#FE8B01"/>
<stop offset="1" stop-color="#FE7801"/>
</linearGradient>
<linearGradient id="paint8_linear_1_981" x1="106.712" y1="47.5896" x2="110.484" y2="47.5896" gradientUnits="userSpaceOnUse">
<stop stop-color="#FFCE00"/>
<stop offset="1" stop-color="#FFC101"/>
</linearGradient>
<clipPath id="clip0_1_981">
<rect width="178.662" height="166.223" fill="white" transform="translate(4.66901)"/>
</clipPath>
</defs>
</svg>
